<svg version="1.1" id="Layer_1" xmlns="http://www.w3.org/2000/svg" xmlns:xlink="http://www.w3.org/1999/xlink" x="0px" y="0px"
	 width="100%" viewBox="0 0 512 512" enable-background="new 0 0 512 512" xml:space="preserve">
<path fill="#000000" opacity="1.000000" stroke="none" 
	d="
M241.468658,513.000000 
	C237.198456,509.876160 232.220535,509.587982 227.914566,507.583313 
	C211.173920,499.789581 199.214996,487.542236 192.349258,470.474365 
	C190.530960,465.954132 187.921143,464.524109 183.068893,464.202850 
	C163.903961,462.934021 144.864777,460.450073 125.947067,457.013733 
	C110.247314,454.161896 94.820534,450.366791 80.068077,444.253479 
	C71.624657,440.754639 63.601196,436.514191 56.845238,430.024628 
	C46.407520,419.998413 44.724094,408.139526 48.432583,394.862183 
	C51.574764,383.612335 58.177235,374.207123 64.630318,364.752411 
	C78.594093,344.293457 86.047836,321.435516 89.586769,297.168182 
	C91.332367,285.198212 92.264282,273.157532 92.807106,261.040710 
	C93.776215,239.408432 92.488785,217.713440 93.943619,196.168198 
	C95.831192,168.214569 105.052818,142.331924 121.018456,119.089943 
	C141.171310,89.752403 167.690536,68.562935 201.350952,56.542660 
	C209.319214,53.697163 209.165482,53.618317 209.690430,44.948071 
	C210.822815,26.244604 222.296677,9.563440 240.087708,3.358371 
	C241.316132,2.929923 242.426239,2.162239 243.795685,1.276157 
	C252.020905,1.000000 260.041809,1.000000 268.531372,1.000000 
	C271.563324,3.362235 275.132385,3.384181 278.069305,4.913090 
	C295.094147,13.775866 303.630402,28.022606 304.204834,46.952831 
	C304.345825,51.598148 305.407898,54.102238 310.069153,55.634151 
	C327.390778,61.326855 343.277679,69.907555 357.612823,81.160370 
	C374.349823,94.298615 388.102844,110.014313 398.835480,128.531204 
	C409.391479,146.743317 415.812164,166.238052 419.140961,186.860168 
	C419.904358,191.589569 420.368805,196.441650 420.271240,201.222992 
	C419.799011,224.358963 420.354767,247.501938 421.563049,270.569672 
	C422.998260,297.969879 427.419312,325.008423 440.457855,349.698273 
	C445.401672,359.059937 451.587952,367.764648 457.191132,376.779236 
	C461.951965,384.438629 465.758698,392.525146 467.059082,401.523163 
	C469.107819,415.699585 463.132202,426.421692 451.897766,434.444855 
	C437.997894,444.371582 421.948273,449.264435 405.618713,453.265686 
	C387.263397,457.763275 368.594849,460.446625 349.814270,462.453369 
	C342.566010,463.227844 335.347717,464.401550 328.045319,464.325836 
	C324.024414,464.284149 323.195709,467.200958 322.075134,469.929077 
	C315.801758,485.202637 305.560455,496.934875 291.144501,505.060822 
	C285.496033,508.244751 279.253143,509.892883 273.175964,512.705750 
	C262.645782,513.000000 252.291550,513.000000 241.468658,513.000000 
M319.757111,86.860474 
	C312.188049,83.472862 304.691345,79.801132 296.706421,77.563538 
	C277.394836,72.151863 257.815552,70.380211 237.790436,73.218369 
	C220.979691,75.600952 205.112381,80.758408 190.425293,88.945595 
	C168.883850,100.953674 151.442383,117.512466 138.558975,138.738937 
	C126.068130,159.318649 119.002968,181.662323 118.508179,205.611343 
	C117.849701,237.484207 119.270142,269.425232 114.329521,301.097626 
	C112.081444,315.509186 108.978683,329.703644 103.809639,343.425385 
	C98.150681,358.447693 90.251976,372.220886 81.504967,385.586578 
	C78.779869,389.750580 75.708015,393.867584 73.953270,398.449738 
	C70.145721,408.392212 71.291054,411.745575 80.638222,417.181549 
	C87.405853,421.117371 94.815392,423.642639 102.378769,425.656830 
	C125.287994,431.757690 148.614639,435.265625 172.166977,437.880096 
	C187.494354,439.581543 202.886795,441.137634 218.200958,441.309113 
	C235.597900,441.503845 252.960693,442.772858 270.451965,441.998535 
	C294.316376,440.942017 318.159729,440.316193 341.950104,437.789581 
	C364.215637,435.424896 386.269165,432.121033 407.973022,426.584503 
	C417.021149,424.276398 425.828033,421.336761 434.067963,416.870056 
	C441.690765,412.737823 443.605255,407.779175 440.619110,399.636536 
	C439.065186,395.399170 436.602570,391.640991 434.069885,387.936188 
	C419.811737,367.079895 408.567566,344.799286 403.103943,319.988617 
	C398.138000,297.438141 396.300690,274.494385 395.645996,251.445847 
	C395.121918,232.995529 396.777496,214.509216 394.709625,196.084457 
	C392.326416,174.849655 385.795044,155.167618 374.266815,136.982178 
	C360.667603,115.529839 342.557007,99.267624 319.757111,86.860474 
M220.111053,469.054108 
	C230.260834,483.097168 244.016144,490.059326 261.269409,488.464386 
	C275.868530,487.114838 287.227875,479.831085 295.306610,466.801178 
	C287.902740,465.390320 281.395386,467.732269 274.758392,467.439178 
	C258.648254,466.727844 242.491898,468.354126 226.377319,466.511536 
	C224.316284,466.275879 221.006424,464.663330 220.111053,469.054108 
M272.174225,31.301903 
	C264.674286,25.519806 256.768555,23.335768 247.594971,27.554283 
	C238.802902,31.597363 235.797302,38.905537 234.566864,48.329514 
	C249.706161,46.156288 264.449432,46.030819 279.594788,48.370426 
	C278.659637,41.550468 276.857758,36.182137 272.174225,31.301903 
z"/>
</svg>