<?xml version="1.0" standalone="no"?>
<!DOCTYPE svg PUBLIC "-//W3C//DTD SVG 20010904//EN"
 "http://www.w3.org/TR/2001/REC-SVG-20010904/DTD/svg10.dtd">
<svg version="1.0" xmlns="http://www.w3.org/2000/svg"
 width="512.000000pt" height="512.000000pt" viewBox="0 0 512.000000 512.000000"
 preserveAspectRatio="xMidYMid meet">

<g transform="translate(0.000000,512.000000) scale(0.100000,-0.100000)"
fill="#000000" stroke="none">
<path d="M3455 4466 c-94 -41 -124 -168 -58 -247 43 -51 76 -59 235 -59 l143
0 -282 -282 c-304 -305 -305 -307 -288 -395 9 -49 69 -109 118 -118 88 -17 90
-16 394 287 l282 281 3 -156 c3 -139 5 -159 24 -183 39 -53 71 -69 134 -69 63
0 95 16 134 69 20 27 21 39 21 405 l0 378 -27 35 c-52 67 -55 68 -450 68 -271
-1 -360 -4 -383 -14z"/>
<path d="M2301 4454 c-473 -64 -908 -306 -1216 -675 -373 -447 -524 -1054
-403 -1619 106 -496 392 -919 812 -1201 757 -509 1771 -412 2417 231 320 319
516 733 560 1185 21 211 -6 537 -49 595 -10 14 -34 36 -53 48 -28 20 -44 23
-90 20 -106 -8 -156 -71 -145 -187 15 -158 18 -410 7 -496 -105 -795 -787
-1395 -1586 -1395 -775 0 -1444 564 -1576 1330 -27 157 -27 383 0 540 116 673
649 1199 1326 1311 39 6 161 14 272 18 182 5 204 8 229 27 51 38 69 71 69 129
0 60 -20 95 -75 133 -31 21 -42 22 -214 21 -100 -1 -228 -7 -285 -15z"/>
<path d="M2495 3666 c-74 -34 -95 -83 -95 -220 l0 -102 -72 -17 c-171 -41
-301 -138 -363 -269 -80 -168 -49 -331 92 -480 105 -110 248 -162 484 -177
195 -13 270 -42 325 -126 36 -54 -25 -136 -127 -171 -77 -27 -281 -27 -358 0
-72 25 -129 77 -137 124 -11 70 -25 101 -59 131 -86 75 -224 37 -257 -71 -16
-55 2 -153 43 -236 62 -122 219 -237 363 -266 l61 -13 5 -116 c5 -125 14 -147
74 -191 39 -29 133 -29 172 0 60 44 69 66 74 191 l5 115 73 19 c217 55 363
197 395 385 21 124 -22 250 -124 359 -110 118 -249 169 -495 185 -82 5 -164
13 -181 19 -86 26 -153 87 -153 141 0 40 38 88 93 114 73 36 156 49 267 43
160 -9 262 -62 275 -145 12 -70 26 -101 60 -131 106 -93 265 -16 265 128 0 55
-32 152 -70 211 -68 106 -212 201 -348 230 l-60 12 -4 119 c-3 127 -11 148
-70 192 -34 25 -113 32 -153 13z"/>
</g>
</svg>
