<?xml version="1.0" standalone="no"?>
<!DOCTYPE svg PUBLIC "-//W3C//DTD SVG 20010904//EN"
 "http://www.w3.org/TR/2001/REC-SVG-20010904/DTD/svg10.dtd">
<svg version="1.0" xmlns="http://www.w3.org/2000/svg"
 width="512.000000pt" height="512.000000pt" viewBox="0 0 512.000000 512.000000"
 preserveAspectRatio="xMidYMid meet">

<g transform="translate(0.000000,512.000000) scale(0.100000,-0.100000)"
fill="#000000" stroke="none">
<path d="M4095 4466 c-16 -8 -151 -136 -300 -285 l-270 -271 -5 154 c-4 136
-7 158 -26 182 -39 53 -71 69 -134 69 -63 0 -95 -16 -134 -69 -20 -27 -21 -39
-21 -405 l0 -378 27 -35 c52 -69 55 -69 462 -66 350 3 366 4 392 24 53 39 69
71 69 134 0 63 -16 95 -69 134 -24 19 -44 21 -183 24 l-156 3 281 282 c242
243 281 287 287 320 25 132 -101 237 -220 183z"/>
<path d="M2301 4454 c-397 -54 -765 -230 -1058 -507 -603 -570 -773 -1465
-419 -2212 156 -329 380 -586 686 -788 664 -438 1544 -414 2187 59 439 324
721 821 774 1369 21 211 -6 537 -49 595 -10 14 -34 36 -53 48 -28 20 -44 23
-90 20 -66 -5 -109 -32 -134 -84 -19 -40 -18 -74 5 -264 59 -475 -168 -1024
-558 -1351 -219 -183 -475 -303 -757 -355 -139 -26 -411 -26 -550 0 -371 68
-712 264 -946 544 -181 217 -295 455 -351 737 -32 156 -32 431 0 590 129 648
606 1132 1252 1271 92 20 158 27 327 32 192 6 214 9 239 28 51 38 69 71 69
129 0 60 -20 95 -75 133 -31 21 -42 22 -214 21 -100 -1 -228 -7 -285 -15z"/>
<path d="M2495 3666 c-74 -34 -95 -83 -95 -220 l0 -102 -70 -17 c-109 -26
-196 -73 -271 -147 -180 -178 -183 -407 -8 -595 110 -117 249 -169 490 -184
195 -13 270 -42 325 -126 36 -54 -25 -136 -127 -171 -77 -27 -281 -27 -358 0
-72 25 -129 77 -137 124 -11 70 -25 101 -59 131 -86 75 -224 37 -257 -71 -16
-55 2 -153 43 -236 62 -122 219 -237 363 -266 l61 -13 5 -116 c5 -125 14 -147
74 -191 39 -29 133 -29 172 0 60 44 69 66 74 191 l5 115 73 19 c217 55 363
197 395 385 21 124 -22 250 -124 359 -110 118 -249 169 -495 185 -82 5 -164
13 -181 19 -56 16 -113 54 -133 87 -76 121 96 226 344 211 156 -9 258 -64 271
-145 12 -70 26 -101 60 -131 61 -54 149 -53 210 0 48 43 62 93 48 176 -32 187
-192 341 -404 391 l-67 16 -4 117 c-3 127 -11 148 -70 192 -34 25 -113 32
-153 13z"/>
</g>
</svg>
