<svg version="1.1" id="Layer_1" xmlns="http://www.w3.org/2000/svg" xmlns:xlink="http://www.w3.org/1999/xlink" x="0px" y="0px"
	 width="100%" viewBox="0 0 512 512" enable-background="new 0 0 512 512" xml:space="preserve">
<path fill="#000000" opacity="1.000000" stroke="none" 
	d="
M513.000000,269.531342 
	C509.499084,287.081390 501.801636,301.782684 488.699982,313.545563 
	C475.880341,325.055237 460.944733,331.312164 443.775055,332.377716 
	C428.162628,333.346680 413.245575,330.861908 399.748444,322.668793 
	C381.321106,311.482971 368.692719,295.620667 364.280457,274.310028 
	C359.603821,251.722244 362.604858,230.128494 377.105865,211.498856 
	C392.201263,192.105515 411.913422,181.480545 437.149231,181.551727 
	C469.782013,181.643753 492.615997,196.824631 507.151276,225.391571 
	C510.002655,230.995575 511.511108,237.163773 512.884399,243.670425 
	C513.000000,252.354233 513.000000,260.708466 513.000000,269.531342 
M403.455688,229.948029 
	C395.537781,240.077301 392.290436,251.891724 394.658508,264.172272 
	C400.396484,293.928650 430.622803,309.102997 457.244476,296.292297 
	C479.150818,285.750702 488.097992,259.507843 477.224640,237.367844 
	C470.529633,223.735687 459.026245,215.621704 444.242462,213.589279 
	C428.256744,211.391678 414.484070,216.850906 403.455688,229.948029 
z"/>
<path fill="#000000" opacity="1.000000" stroke="none" 
	d="
M1.000000,240.468658 
	C3.644999,237.597595 3.480929,234.025192 4.646143,231.021606 
	C14.796149,204.857758 33.368530,188.149124 60.921993,182.842346 
	C83.172043,178.557007 104.355492,182.472488 122.493103,196.868607 
	C140.869324,211.454071 150.881897,230.428467 151.464783,254.348923 
	C151.907120,272.501678 147.517059,288.948486 136.264603,303.152802 
	C121.824493,321.380951 103.141304,331.619476 79.446274,332.461487 
	C62.058487,333.079376 46.116318,329.163757 32.019958,319.016937 
	C15.414073,307.063751 5.197820,290.812531 1.119868,270.344666 
	C1.000000,260.312439 1.000000,250.624878 1.000000,240.468658 
M94.374619,217.198944 
	C86.176636,213.160522 77.240036,211.915039 68.608459,213.668976 
	C34.311283,220.638214 21.305965,258.659241 41.867668,284.290833 
	C62.122997,309.540527 99.796570,305.231537 114.591164,277.576263 
	C126.663696,255.009277 117.949860,229.344437 94.374619,217.198944 
z"/>
<path fill="#000000" opacity="1.000000" stroke="none" 
	d="
M285.205933,186.521942 
	C312.519409,196.956589 332.716644,225.325241 332.532562,255.149734 
	C332.422577,272.963989 328.364258,289.069580 317.322083,303.004395 
	C302.620331,321.557434 283.667633,331.869019 259.510406,332.480286 
	C241.326050,332.940399 224.865341,328.484070 210.699890,317.183075 
	C192.672043,302.800751 182.484085,284.204285 181.561340,260.693176 
	C180.835037,242.187241 185.099136,225.290237 196.623276,210.775482 
	C210.845932,192.861923 229.238159,182.405930 252.581909,181.619278 
	C263.651581,181.246231 274.485626,182.076111 285.205933,186.521942 
M215.342560,270.299255 
	C222.139908,292.077118 243.559692,303.909668 264.378113,300.326569 
	C293.503876,295.313690 309.031769,264.309052 296.375671,237.531204 
	C288.135223,220.095993 264.935242,207.380814 241.405029,216.052795 
	C221.196991,223.500412 207.840912,247.878632 215.342560,270.299255 
z"/>
</svg>