<?xml version="1.0" standalone="no"?>
<!DOCTYPE svg PUBLIC "-//W3C//DTD SVG 20010904//EN"
 "http://www.w3.org/TR/2001/REC-SVG-20010904/DTD/svg10.dtd">
<svg version="1.0" xmlns="http://www.w3.org/2000/svg"
 width="90.000000pt" height="90.000000pt" viewBox="0 0 90.000000 90.000000"
 preserveAspectRatio="xMidYMid meet">

<g transform="translate(0.000000,90.000000) scale(0.100000,-0.100000)"
fill="#000000" stroke="none">
<path d="M80 730 c-19 -19 -20 -33 -20 -280 0 -247 1 -261 20 -280 19 -19 33
-20 370 -20 337 0 351 1 370 20 19 19 20 33 20 280 0 247 -1 261 -20 280 -19
19 -33 20 -370 20 -337 0 -351 -1 -370 -20z m117 -202 c6 -7 16 -31 23 -53
l13 -40 17 50 c16 47 19 50 53 53 l37 3 0 -90 c0 -90 0 -91 -24 -91 -23 0 -25
4 -28 53 l-3 52 -16 -50 c-11 -36 -22 -51 -36 -53 -17 -2 -23 7 -36 50 l-15
53 -1 -52 c-1 -50 -3 -53 -26 -53 -25 0 -25 1 -25 90 l0 90 29 0 c16 0 33 -6
38 -12z m235 -40 l3 -53 28 53 c25 47 30 52 62 52 l35 0 0 -90 0 -90 -30 0
c-29 0 -30 1 -30 53 l0 52 -28 -50 c-23 -42 -32 -50 -59 -53 l-33 -3 0 90 c0
90 0 91 24 91 23 0 25 -4 28 -52z m316 36 c12 -8 22 -24 22 -35 0 -17 -7 -19
-70 -19 -62 0 -74 3 -95 25 -14 13 -25 29 -25 35 0 17 142 13 168 -6z m12 -82
c0 -13 -48 -32 -80 -32 -25 0 -30 -4 -30 -25 0 -21 -5 -25 -30 -25 -29 0 -30
2 -30 45 l0 45 85 0 c47 0 85 -4 85 -8z"/>
</g>
</svg>
